<svg xmlns="http://www.w3.org/2000/svg" xmlns:xlink="http://www.w3.org/1999/xlink" version="1.1" x="0px" y="0px" viewBox="0 0 100 125" enable-background="new 0 0 100 100" xml:space="preserve"><path fill="none" stroke="#000000" stroke-width="3.2445" stroke-miterlimit="10" d="M56,26.375  c-4.026-3.751-9.974-6.582-16.131-6.582c-14.405,0-26.083,11.678-26.083,26.083c0,9.193,4.76,17.27,11.946,21.915  c-0.148,0.773-0.232,1.568-0.232,2.384v10.2"/><path fill="none" stroke="#000000" stroke-width="3.2445" stroke-miterlimit="10" d="M50.75,80.375v-5.333h2.167  c4.096,0,3.946,1.03,6.785-0.284c2.715-1.257,2.841-4.327,2.048-5.507c4.263-4.641,2.594-9.826,2.594-16.625  c0-1.581,9.083-2.216,5.594-5.5c-1.874-1.764,0.33,0.164-1.542-1.604"/><path fill="none" stroke="#000000" stroke-width="3.245" stroke-linecap="round" stroke-miterlimit="10" d="M64.202,58.229  c0,0-2.575,0.554-5.076,0.556c-3.667,0.004-6.715-1.348-6.715-1.348"/><line fill="none" stroke="#000000" stroke-width="3.245" stroke-linecap="round" stroke-miterlimit="10" x1="43.188" y1="44.349" x2="15.5" y2="44.349"/><line fill="none" stroke="#000000" stroke-width="3.245" stroke-linecap="round" stroke-miterlimit="10" x1="18.542" y1="32.25" x2="41.813" y2="32.487"/><path fill="none" stroke="#000000" stroke-width="3.245" stroke-linecap="round" stroke-miterlimit="10" d="M71.063,39.938  c0,3.417,0.538,6.473-2.879,6.473L48,46.549c-1.636,0-6.188-2.77-6.188-6.188v-7.875c0-3.417,4.355-6.188,6.188-6.188l20.184-0.138  c3.417,0,2.879,2.484,2.879,5.902V39.938z"/><path fill="none" stroke="#000000" stroke-width="2" stroke-linecap="round" stroke-miterlimit="10" stroke-dasharray="3,4,10,3,4" d="  M45.091,32.738c0,0,1.203-2.71,3.181-3.068c1.978-0.358,13.603-0.05,13.603-0.05"/><path fill="none" stroke="#000000" stroke-width="2.6076" stroke-linecap="round" stroke-miterlimit="10" stroke-dasharray="3.9115,5.2153,13.0382,3.9115,5.2153" d="  M76.959,50.034c0,0,2.848-5.606,2.848-13.273s-2.848-14.425-2.848-14.425"/><path fill="none" stroke="#000000" stroke-width="3.4157" stroke-linecap="round" stroke-miterlimit="10" stroke-dasharray="5.1236,6.8314,17.0785,5.1236,6.8314" d="  M86.019,62.448c0,0,5.555-10.936,5.555-25.894S86.019,8.413,86.019,8.413"/><line fill="none" stroke="#000000" stroke-width="3.245" stroke-linecap="round" stroke-miterlimit="10" x1="64.357" y1="45.779" x2="64.357" y2="26.276"/><path fill="none" stroke="#000000" stroke-width="2.4292" stroke-linecap="round" stroke-miterlimit="10" d="M25.84,40.79  c0,0.271-0.22,0.491-0.491,0.491l0,0c-0.271,0-0.491-0.22-0.491-0.491v-4.071c0-0.271,0.22-0.491,0.491-0.491l0,0  c0.271,0,0.491,0.22,0.491,0.491V40.79z"/><text x="0" y="115" fill="#000000" font-size="5px" font-weight="bold" font-family="'Helvetica Neue', Helvetica, Arial-Unicode, Arial, Sans-serif">Created by Manuel Nilsson</text><text x="0" y="120" fill="#000000" font-size="5px" font-weight="bold" font-family="'Helvetica Neue', Helvetica, Arial-Unicode, Arial, Sans-serif">from the Noun Project</text></svg>