<svg xmlns="http://www.w3.org/2000/svg" xmlns:xlink="http://www.w3.org/1999/xlink" version="1.1" x="0px" y="0px" viewBox="0 0 100 125" enable-background="new 0 0 100 100" xml:space="preserve"><path d="M88.368,24.189c-1.599-3.952-4.529-6.386-8.477-7.04c-1.08-0.179-2.313-0.331-3.64-0.464  c-3.873-5.121-13.526-8.019-21.041-8.547c-2.668-0.187-7.83-0.187-10.424,0c-7.535,0.545-16.896,3.08-21.007,8.53  c-1.336,0.137-2.583,0.294-3.676,0.481c-3.953,0.675-6.882,3.109-8.472,7.039C7.294,34.907,6.568,50.794,7.713,58.143  c0.71,4.555,3.963,7.274,8.702,7.274c1.162,0,2.319-0.064,3.484-0.151c0.288,6.622,3.901,11.246,8.069,16.558  c0.752,0.958,1.522,1.94,2.294,2.962c3.338,4.418,5.832,5.695,9.542,6.616c1.609,0.4,4.693,0.597,9.4,0.597  c0.256,0,0.535-0.003,0.801-0.004C50.273,91.997,50.552,92,50.809,92c4.709,0,7.794-0.196,9.403-0.596  c3.712-0.923,6.207-2.199,9.545-6.617c0.772-1.022,1.543-2.005,2.296-2.963c4.167-5.311,7.778-9.932,8.068-16.551  c1.132,0.084,2.273,0.146,3.464,0.146c4.739,0,7.992-2.719,8.702-7.274C93.432,50.794,92.706,34.907,88.368,24.189z M44.932,10.134  c2.475-0.178,7.592-0.178,10.139,0c6.305,0.442,14.165,2.579,18.265,6.303c-8.076-0.584-18.455-0.587-24.138-0.587  c-5.273,0-14.85,0.001-22.498,0.563C30.327,13.053,37.014,10.706,44.932,10.134z M70.479,80.588  c-0.759,0.968-1.538,1.96-2.317,2.993c-2.994,3.964-5.104,5.055-8.432,5.882c-1,0.249-3.337,0.53-8.777,0.536v-0.007  c-0.326,0.003-0.635,0.005-0.942,0.006c-0.31-0.001-0.622-0.003-0.951-0.006v0.007c-5.431-0.006-7.772-0.287-8.771-0.537  c-3.324-0.826-5.434-1.917-8.429-5.881c-0.779-1.032-1.558-2.023-2.316-2.991c-3.968-5.058-7.404-9.455-7.647-15.494  c1.647-0.171,3.341-0.391,5.157-0.631c5.456-0.721,12.246-1.619,22.146-1.619c11.982,0,18.804,0.926,24.285,1.671  c1.622,0.22,3.139,0.421,4.643,0.581C77.882,71.135,74.446,75.532,70.479,80.588z M90.311,57.835  c-0.785,5.038-4.965,5.582-6.726,5.582c-3.339,0-6.205-0.389-9.834-0.882c-5.541-0.752-12.437-1.689-24.554-1.689  c-10.031,0-16.894,0.907-22.407,1.636c-3.797,0.502-7.077,0.936-10.375,0.936c-1.761,0-5.94-0.544-6.726-5.582  c-1.108-7.12-0.406-22.513,3.796-32.896c1.316-3.253,3.721-5.265,6.954-5.817c7.441-1.271,21.839-1.271,28.758-1.271  c7.362,0,22.684,0,30.368,1.272c3.223,0.534,5.625,2.545,6.949,5.816C90.717,35.323,91.419,50.716,90.311,57.835z"/><path d="M43.744,74.419l-0.182,1.991c1.904,0.175,3.884,0.263,5.883,0.263c2.351,0,4.662-0.122,6.872-0.362l-0.217-1.988  C52.144,74.753,47.757,74.787,43.744,74.419z"/><path d="M60.697,38.427l-19.95-8.412c-0.31-0.131-0.663-0.098-0.941,0.088c-0.279,0.185-0.447,0.498-0.447,0.833V47.76  c0,0.335,0.168,0.648,0.447,0.833c0.166,0.111,0.358,0.167,0.553,0.167c0.132,0,0.264-0.026,0.389-0.079l19.95-8.412  c0.37-0.156,0.611-0.519,0.611-0.921S61.067,38.583,60.697,38.427z M41.358,46.253v-13.81l16.376,6.905L41.358,46.253z"/><text x="0" y="115" fill="#000000" font-size="5px" font-weight="bold" font-family="'Helvetica Neue', Helvetica, Arial-Unicode, Arial, Sans-serif">Created by Felisberto Piazza</text><text x="0" y="120" fill="#000000" font-size="5px" font-weight="bold" font-family="'Helvetica Neue', Helvetica, Arial-Unicode, Arial, Sans-serif">from the Noun Project</text></svg>